<?xml version="1.0" encoding="UTF-8"?>
<!DOCTYPE svg PUBLIC "-//W3C//DTD SVG 1.1//EN" "http://www.w3.org/Graphics/SVG/1.1/DTD/svg11.dtd">
<svg xmlns="http://www.w3.org/2000/svg" xmlns:xlink="http://www.w3.org/1999/xlink" version="1.1" width="367px" height="231px" viewBox="-0.5 -0.5 367 231"><defs><linearGradient x1="0%" y1="100%" x2="0%" y2="0%" id="mx-gradient-f54749-1-c7131f-1-s-0"><stop offset="0%" style="stop-color: rgb(199, 19, 31); stop-opacity: 1;"/><stop offset="100%" style="stop-color: rgb(245, 71, 73); stop-opacity: 1;"/></linearGradient></defs><g><rect x="0" y="0" width="365.1" height="230" fill-opacity="0.8" fill="rgb(255, 255, 255)" stroke="none" pointer-events="all"/><image x="-0.5" y="-0.5" width="365.1" height="230" xlink:href="https://app.diagrams.net/img/lib/active_directory/internet_cloud.svg" opacity="0.8"/><image x="49.5" y="107.5" width="50" height="50" xlink:href="https://github.com/tenorwill/awsmfa/blob/main/reference/go.png?raw=true" preserveAspectRatio="none"/><image x="99.5" y="69.5" width="150.48" height="90" xlink:href="https://upload.wikimedia.org/wikipedia/commons/thumb/9/93/Amazon_Web_Services_Logo.svg/1024px-Amazon_Web_Services_Logo.svg.png" preserveAspectRatio="none"/><path d="M 260 116 L 294 116 L 294 150 L 260 150 Z" fill="url(#mx-gradient-f54749-1-c7131f-1-s-0)" stroke="none" pointer-events="all"/><path d="M 276.4 134.63 C 276.4 134.96 276.67 135.23 277 135.23 C 277.33 135.23 277.6 134.96 277.6 134.63 C 277.6 134.3 277.33 134.03 277 134.03 C 276.67 134.03 276.4 134.3 276.4 134.63 Z M 275.43 134.63 C 275.43 133.76 276.13 133.06 277 133.06 C 277.87 133.06 278.57 133.76 278.57 134.63 C 278.57 135.33 278.12 135.92 277.49 136.12 L 277.49 137.37 L 276.51 137.37 L 276.51 136.12 C 275.88 135.92 275.43 135.33 275.43 134.63 Z M 281.37 132.03 L 272.63 132.03 L 272.63 138.34 L 281.37 138.34 L 281.37 136.89 L 279.91 136.89 L 279.91 135.91 L 281.37 135.91 L 281.37 134.46 L 279.91 134.46 L 279.91 133.49 L 281.37 133.49 Z M 274.09 131.06 L 279.91 131.06 L 279.91 128.63 C 279.91 127.36 278.53 126.2 277 126.2 L 277 126.2 C 276.26 126.2 275.51 126.48 274.94 126.97 C 274.4 127.43 274.09 128.04 274.09 128.63 Z M 280.89 128.63 L 280.89 131.06 L 281.86 131.06 C 282.13 131.06 282.34 131.27 282.34 131.54 L 282.34 138.83 C 282.34 139.1 282.13 139.31 281.86 139.31 L 272.14 139.31 C 271.87 139.31 271.66 139.1 271.66 138.83 L 271.66 131.54 C 271.66 131.27 271.87 131.06 272.14 131.06 L 273.11 131.06 L 273.11 128.63 C 273.11 127.76 273.55 126.88 274.31 126.23 C 275.05 125.59 276.03 125.23 277 125.23 L 277 125.23 C 279.07 125.23 280.89 126.82 280.89 128.63 Z M 266.9 140.31 L 267.69 139.74 C 266.36 137.9 265.63 135.75 265.54 133.49 L 266.8 133.49 L 266.8 132.51 L 265.54 132.51 C 265.63 130.26 266.37 128.12 267.69 126.3 L 266.9 125.73 C 265.46 127.72 264.66 130.06 264.57 132.51 L 263.4 132.51 L 263.4 133.49 L 264.56 133.49 C 264.65 135.96 265.45 138.31 266.9 140.31 Z M 283.72 142.33 C 281.89 143.65 279.74 144.39 277.49 144.48 L 277.49 143.2 L 276.51 143.2 L 276.51 144.48 C 274.26 144.39 272.11 143.66 270.28 142.33 L 269.71 143.12 C 271.71 144.56 274.05 145.36 276.51 145.45 L 276.51 146.6 L 277.49 146.6 L 277.49 145.45 C 279.95 145.36 282.29 144.56 284.29 143.12 Z M 270.28 123.71 C 272.11 122.38 274.26 121.65 276.51 121.55 L 276.51 122.8 L 277.49 122.8 L 277.49 121.55 C 279.74 121.65 281.89 122.38 283.72 123.71 L 284.29 122.92 C 282.29 121.47 279.95 120.68 277.49 120.58 L 277.49 119.4 L 276.51 119.4 L 276.51 120.58 C 274.05 120.68 271.71 121.47 269.71 122.92 Z M 289.43 132.51 C 289.34 130.06 288.54 127.72 287.1 125.73 L 286.31 126.3 C 287.63 128.12 288.37 130.26 288.46 132.51 L 287.2 132.51 L 287.2 133.49 L 288.46 133.49 C 288.37 135.75 287.64 137.9 286.31 139.74 L 287.1 140.31 C 288.55 138.31 289.34 135.96 289.44 133.49 L 290.6 133.49 L 290.6 132.51 Z M 284.96 125.75 L 288.77 121.94 L 288.08 121.25 L 284.27 125.06 Z M 269.04 140.29 L 265.23 144.1 L 265.92 144.79 L 269.73 140.98 Z M 271.49 126.81 L 264.29 119.6 L 263.6 120.29 L 270.81 127.5 Z M 283.89 139.21 L 290.4 145.71 L 289.71 146.4 L 283.21 139.89 Z" fill="#ffffff" stroke="none" pointer-events="all"/></g></svg>